<svg xmlns="http://www.w3.org/2000/svg" viewBox="0 19.920000076293945 25.489999771118164 38.88999938964844" data-asc="1.17626953125" width="25.489999771118164" height="38.88999938964844"><defs/><g fill="#1e293b"><g transform="translate(0, 0)"><path d="M0 58.81L2.42 46.39L0.10 46.39L0.10 40.72L3.52 40.72L4.20 37.18L1.51 37.18L1.51 31.52L5.30 31.52L7.57 19.92L14.50 19.92L12.23 31.52L16.28 31.52L18.55 19.92L25.49 19.92L23.22 31.52L25.49 31.52L25.49 37.18L22.12 37.18L21.44 40.72L24.07 40.72L24.07 46.39L20.31 46.39L17.90 58.81L10.99 58.81L13.40 46.39L9.33 46.39L6.91 58.81L0 58.81M10.45 40.72L14.50 40.72L15.19 37.18L11.13 37.18L10.45 40.72Z"/></g></g></svg>